<?xml version="1.0" encoding="utf-8"?>
<!-- Generator: Adobe Illustrator 16.0.0, SVG Export Plug-In . SVG Version: 6.00 Build 0)  -->
<!DOCTYPE svg PUBLIC "-//W3C//DTD SVG 1.1//EN" "http://www.w3.org/Graphics/SVG/1.1/DTD/svg11.dtd">
<svg version="1.1" id="Layer_2" xmlns="http://www.w3.org/2000/svg" xmlns:xlink="http://www.w3.org/1999/xlink" x="0px" y="0px"
	 width="400px" height="400px" viewBox="0 0 400 400" enable-background="new 0 0 400 400" xml:space="preserve">
<path fill="#CC6633" stroke="#CC6633" stroke-miterlimit="10" d="M268.5,272.544c0,5.649-5.373,9.956-12,9.956h-129
	c-6.627,0-12-4.307-12-9.956V132.73c0-5.65,5.373-10.23,12-10.23h129c6.627,0,12,4.58,12,10.23V272.544z"/>
<path fill="#FF9A48" stroke="#FF9A48" stroke-miterlimit="10" d="M287.5,304c0,4.143-3.357,7.5-7.5,7.5H111
	c-4.142,0-7.5-3.357-7.5-7.5l0,0c0-4.143,3.358-7.5,7.5-7.5h169C284.143,296.5,287.5,299.857,287.5,304L287.5,304z"/>
<path fill="#CC6633" stroke="#CC6633" stroke-miterlimit="10" d="M322.715,192.816c0,36.549-32.418,78.662-54.215,78.662
	c0,0,0-29.628,0-66.177c0-36.548,0-66.177,0-66.177C290.297,139.125,322.715,156.268,322.715,192.816z"/>
<path fill="#FFFFFF" stroke="#CC6633" stroke-miterlimit="10" d="M310.783,193c0,28.505-25.283,61.351-42.283,61.351
	c0,0,0-23.107,0-51.612c0-28.506,0-51.613,0-51.613C285.5,151.125,310.783,164.494,310.783,193z"/>
<g>
	<path fill="none" stroke="#999999" stroke-miterlimit="10" d="M172.5,39c0,11.832-14,11.832-14,23.665
		c0,11.833,14,11.833,14,23.667s-14,11.834-14,23.668"/>
</g>
<g>
	<path fill="none" stroke="#999999" stroke-miterlimit="10" d="M199.5,39c0,11.832-14,11.832-14,23.665
		c0,11.833,14,11.833,14,23.667s-14,11.834-14,23.668"/>
</g>
<g>
	<path fill="none" stroke="#999999" stroke-miterlimit="10" d="M223.5,39c0,11.832-14,11.832-14,23.665
		c0,11.833,14,11.833,14,23.667s-14,11.834-14,23.668"/>
</g>
<rect x="115.5" y="122.5" fill="#CC6633" stroke="#CC6633" stroke-miterlimit="10" width="153" height="134"/>
</svg>
