<?xml version="1.0" encoding="utf-8"?>
<!-- Generator: Adobe Illustrator 19.1.0, SVG Export Plug-In . SVG Version: 6.00 Build 0)  -->
<svg version="1.1" xmlns="http://www.w3.org/2000/svg" xmlns:xlink="http://www.w3.org/1999/xlink" x="0px" y="0px"
	 viewBox="0 0 400 150" style="enable-background:new 0 0 400 150;" xml:space="preserve">
<style type="text/css">
	.st0{fill:#FF9A48;}
	.st1{fill:#CC6633;}
	.st2{display:none;}
	.st3{display:inline;fill:#FF9A48;}
	.st4{display:inline;fill:#BF7336;}
	.st5{display:inline;fill:#593110;}
	.st6{display:inline;fill:#9FC6E0;}
	.st7{display:inline;fill:#3F8DC2;}
	.st8{display:inline;fill:#0B5486;}
</style>
<g id="logo">
	<g>
		<path class="st0" d="M91.3,88v31.6h-7.7V89.1c0-6.6-2.8-8.5-6.2-8.5c-4.8,0-7.4,3.1-10.4,7.8v31.3h-7.7V89.1
			c0-6.6-2.8-8.5-6.2-8.5c-4.8,0-7.4,3.1-10.4,7.8v31.3H35V75.5h6.6l0.7,6.4c2.9-4.4,6.9-7.4,12.7-7.4c5.4,0,9.5,2.9,11.1,8
			c3.2-4.8,7.2-8,13.1-8C86.5,74.5,91.3,79.7,91.3,88z"/>
		<path class="st0" d="M137.6,100.2h-28.1c0.8,10.2,5.5,14.1,11.9,14.1c4.4,0,7.6-1.2,11.5-3.8l3.3,4.6c-4.4,3.4-9.3,5.5-15.4,5.5
			c-12.3,0-19.5-8.6-19.5-22.6c0-13.7,6.9-23.5,18.3-23.5c11.9,0,18.2,8.3,18.2,21.8C137.7,97.8,137.6,99.2,137.6,100.2z M130.1,94
			c0-8.6-3.4-13.4-10.4-13.4c-5.9,0-9.7,4.1-10.3,13.9h20.7V94z"/>
		<path class="st0" d="M181.9,115.3l-1.8,5.4c-4.4-0.5-7.3-2.3-8.6-6.6c-3.1,4.6-7.8,6.6-13.1,6.6c-8.8,0-14.1-5.4-14.1-13.3
			c0-9.5,7.1-14.6,19.4-14.6h6.8v-3.3c0-6.4-3.1-8.7-9.2-8.7c-3.3,0-7.4,0.8-11.9,2.3l-1.9-5.6c5.4-2,10.3-3,15.2-3
			c10.6,0,15.5,5.4,15.5,14.6v20.2C178.2,113.2,179.6,114.4,181.9,115.3z M170.5,108V97.9h-5.8c-8.1,0-12.2,3-12.2,9
			c0,5.2,2.6,7.9,7.6,7.9C164.7,114.8,168,112.6,170.5,108z"/>
		<path class="st0" d="M201.1,114.3c1.1,0,2-0.2,2.8-0.5l2,5.4c-2.1,1-4.3,1.5-6.5,1.5c-5.6,0-8.8-3.3-8.8-9.7V57.8l7.7-0.9v53.9
			C198.4,113.1,199.1,114.3,201.1,114.3z"/>
		<path class="st0" d="M225.9,120.6c-7.4,0-11.9-4.4-11.9-12.6V81.5h-7.7v-5.9h7.7v-10l7.7-0.9v10.9h10.5l-0.8,5.9h-9.6v26.3
			c0,4.4,1.4,6.5,5.3,6.5c1.9,0,3.7-0.6,5.9-1.9l2.9,5.3C232.8,119.6,229.6,120.6,225.9,120.6z"/>
		<path class="st0" d="M252,59.6c0,2.9-2.2,5.2-5.4,5.2c-3.2,0-5.4-2.3-5.4-5.2c0-3,2.2-5.3,5.4-5.3C249.8,54.3,252,56.6,252,59.6z
			 M242.8,119.6V75.5h7.7v44.1H242.8z"/>
		<path class="st0" d="M319.3,88v31.6h-7.7V89.1c0-6.6-2.8-8.5-6.2-8.5c-4.8,0-7.4,3.1-10.4,7.8v31.3h-7.7V89.1
			c0-6.6-2.8-8.5-6.2-8.5c-4.8,0-7.4,3.1-10.4,7.8v31.3h-7.7V75.5h6.6l0.7,6.4c2.9-4.4,6.9-7.4,12.7-7.4c5.4,0,9.5,2.9,11.1,8
			c3.2-4.8,7.2-8,13.1-8C314.6,74.5,319.3,79.7,319.3,88z"/>
		<path class="st0" d="M365.6,100.2h-28.1c0.8,10.2,5.5,14.1,11.9,14.1c4.4,0,7.6-1.2,11.5-3.8l3.3,4.6c-4.4,3.4-9.3,5.5-15.4,5.5
			c-12.3,0-19.5-8.6-19.5-22.6c0-13.7,6.9-23.5,18.3-23.5c11.9,0,18.2,8.3,18.2,21.8C365.8,97.8,365.7,99.2,365.6,100.2z M358.2,94
			c0-8.6-3.4-13.4-10.4-13.4c-5.9,0-9.7,4.1-10.3,13.9h20.7V94z"/>
	</g>
	<g>
		<path class="st1" d="M42.5,29.4c0,2.3-1.7,4-4.2,4c-2.5,0-4.1-1.7-4.1-4s1.7-4,4.1-4C40.8,25.4,42.5,27.1,42.5,29.4z M34.9,61.5
			V37.9h7v23.7H34.9z"/>
		<path class="st1" d="M55.3,62.3c-5.2,0-7.8-3-7.8-8.6v-11h-3.3v-4.9h3.3v-5.1l7-0.8v5.9H60l-0.8,4.9h-4.7v10.9
			c0,2.3,0.8,3.1,2.2,3.1c0.8,0,1.6-0.2,2.5-0.8l2.4,4.5C60,61.7,57.5,62.3,55.3,62.3z"/>
		<path class="st1" d="M70.8,31c0,1.2-0.4,2.2-1.3,4.1L66.7,41h-3.6l1.9-7c-1-0.7-1.7-1.6-1.7-3.1c0-2,1.7-3.6,3.8-3.6
			S70.8,28.9,70.8,31z"/>
		<path class="st1" d="M90,40l-2.6,4c-1.8-1.2-3.8-1.9-5.6-1.9c-2.1,0-3.1,0.7-3.1,1.8c0,1.2,0.6,1.8,4.9,3c4.7,1.3,7.3,3.3,7.3,7.5
			c0,4.9-4.6,7.8-10.5,7.8c-4.1,0-7.6-1.4-9.9-3.5l3.5-3.9c1.7,1.4,3.9,2.4,6.2,2.4c2.2,0,3.5-0.8,3.5-2.2c0-1.6-0.7-2.1-5-3.3
			c-4.7-1.3-7-3.7-7-7.4c0-4.1,3.7-7.2,9.7-7.2C84.7,37.1,87.8,38.2,90,40z"/>
	</g>
</g>
<g id="Colors" class="st2">
	<rect x="101.1" y="23.6" class="st3" width="48.8" height="48.8"/>
	<rect x="174.8" y="23.6" class="st4" width="48.8" height="48.8"/>
	<rect x="248.5" y="23.6" class="st5" width="48.8" height="48.8"/>
	<rect x="101.1" y="83.6" class="st6" width="48.8" height="48.8"/>
	<rect x="175.1" y="83.6" class="st7" width="48.8" height="48.8"/>
	<rect x="249" y="83.6" class="st8" width="48.8" height="48.8"/>
</g>
</svg>
