<?xml version="1.0" encoding="utf-8"?>
<!-- Generator: Adobe Illustrator 16.0.0, SVG Export Plug-In . SVG Version: 6.00 Build 0)  -->
<!DOCTYPE svg PUBLIC "-//W3C//DTD SVG 1.1//EN" "http://www.w3.org/Graphics/SVG/1.1/DTD/svg11.dtd">
<svg version="1.1" id="Layer_2" xmlns="http://www.w3.org/2000/svg" xmlns:xlink="http://www.w3.org/1999/xlink" x="0px" y="0px"
	 width="400px" height="400px" viewBox="0 0 400 400" enable-background="new 0 0 400 400" xml:space="preserve">
<path fill="#CC6633" stroke="#CC6633" stroke-miterlimit="10" d="M268.5,298.5c0,6.627-5.373,12-12,12h-129c-6.627,0-12-5.373-12-12
	v-164c0-6.627,5.373-12,12-12h129c6.627,0,12,5.373,12,12V298.5z"/>
<path fill="#FF9A48" stroke="#FF9A48" stroke-miterlimit="10" d="M287.5,327c0,4.143-3.357,7.5-7.5,7.5H111
	c-4.142,0-7.5-3.357-7.5-7.5l0,0c0-4.143,3.358-7.5,7.5-7.5h169C284.143,319.5,287.5,322.857,287.5,327L287.5,327z"/>
<path fill="#CC6633" stroke="#CC6633" stroke-miterlimit="10" d="M322.715,206.816c0,36.549-32.418,78.662-54.215,78.662
	c0,0,0-29.628,0-66.177c0-36.548,0-66.177,0-66.177C290.297,153.125,322.715,170.268,322.715,206.816z"/>
<path fill="#FFFFFF" stroke="#CC6633" stroke-miterlimit="10" d="M310.783,207c0,28.505-25.283,61.351-42.283,61.351
	c0,0,0-23.107,0-51.612c0-28.506,0-51.613,0-51.613C285.5,165.125,310.783,178.494,310.783,207z"/>
<g>
	<path fill="none" stroke="#999999" stroke-miterlimit="10" d="M172.5,39c0,11.832-14,11.832-14,23.665
		c0,11.833,14,11.833,14,23.667s-14,11.834-14,23.668"/>
</g>
<g>
	<path fill="none" stroke="#999999" stroke-miterlimit="10" d="M199.5,39c0,11.832-14,11.832-14,23.665
		c0,11.833,14,11.833,14,23.667s-14,11.834-14,23.668"/>
</g>
<g>
	<path fill="none" stroke="#999999" stroke-miterlimit="10" d="M223.5,39c0,11.832-14,11.832-14,23.665
		c0,11.833,14,11.833,14,23.667s-14,11.834-14,23.668"/>
</g>
<rect x="115.5" y="122.5" fill="#CC6633" stroke="#CC6633" stroke-miterlimit="10" width="153" height="134"/>
</svg>
