<?xml version="1.0" encoding="utf-8"?>
<!-- Generator: Adobe Illustrator 16.0.0, SVG Export Plug-In . SVG Version: 6.00 Build 0)  -->
<!DOCTYPE svg PUBLIC "-//W3C//DTD SVG 1.1//EN" "http://www.w3.org/Graphics/SVG/1.1/DTD/svg11.dtd">
<svg version="1.1" xmlns="http://www.w3.org/2000/svg" xmlns:xlink="http://www.w3.org/1999/xlink" x="0px" y="0px" width="400px"
	 height="400px" viewBox="0 0 400 400" enable-background="new 0 0 400 400" xml:space="preserve">
<g id="Layer_1">
	<path fill="#FF9A48" stroke="#FF9A48" stroke-miterlimit="10" d="M359.021,167.5c-88.161,0-76.603,0-145.687,0
		c-85.513,0-163.786,1.163-163.985-0.64c-2.453-22.272,69.323-40.1,154.837-40.1C289.697,126.76,359.021,144.5,359.021,167.5z"/>
	<path fill="#FF9A48" stroke="#FF9A48" stroke-miterlimit="10" d="M47.289,222.5c88.161,0,76.603,0,145.687,0
		c85.512,0,163.786-1.349,163.985,0.455c2.453,22.271-69.322,40.192-154.837,40.192C116.613,263.147,47.289,245.5,47.289,222.5z"/>
	<path fill="#CC6633" stroke="#CC6633" stroke-miterlimit="10" d="M364.5,199.244c0,8.426-6.384,15.256-14.259,15.256H53.569
		c-7.875,0-14.069-6.83-14.069-15.256v-8.018c0-8.426,6.195-15.727,14.069-15.727h296.672c7.875,0,14.259,7.301,14.259,15.727
		V199.244z"/>
</g>
<g id="Layer_2">
	<g>
		<path fill="none" stroke="#FCEE21" stroke-width="3" stroke-miterlimit="10" d="M49.289,182.5c8.967,0,8.967,26,17.935,26
			c8.968,0,8.968-26,17.937-26c8.967,0,8.967,26,17.935,26s8.968-26,17.936-26c8.966,0,8.966,26,17.932,26
			c8.966,0,8.966-26,17.932-26c8.967,0,8.967,26,17.935,26c8.969,0,8.969-26,17.937-26c8.967,0,8.967,26,17.934,26
			c8.968,0,8.968-26,17.936-26s8.968,26,17.937,26s8.969-26,17.938-26c8.967,0,8.967,26,17.934,26c8.97,0,8.97-26,17.939-26
			s8.97,26,17.94,26c8.972,0,8.972-26,17.943-26s8.972,26,17.943,26"/>
	</g>
</g>
</svg>
